<svg id="Calque_7" xmlns="http://www.w3.org/2000/svg" xmlns:xlink="http://www.w3.org/1999/xlink" viewBox="0 0 492.5 258"><defs><style>.cls-1{fill:url(#Dégradé_sans_nom_17);}</style><linearGradient id="Dégradé_sans_nom_17" x1="31.46" y1="128" x2="457.04" y2="128" gradientUnits="userSpaceOnUse"><stop offset="0" stop-color="#e8c589"/><stop offset="1" stop-color="#efd6ac"/></linearGradient></defs><path class="cls-1" d="M236.23,58.21c-2.23,.29-4.52,.52-6.81,.87-10.86,1.48-21.09,4.94-30.56,10.61-5.28,3.22-10.07,6.76-14.42,10.76-.57,.44-1.19,1.12-1.81,1.63-7.28,6.98-13.02,15.12-17.23,24.43-.43,.79-.81,1.58-1.13,2.3-1.71,3.96-3.02,8.07-4.2,12.41-1.14,4.2-1.97,8.53-2.29,12.87-1.07,14.83,1.15,28.56,6.63,41.02,.07,.17,.14,.35,.2,.52,2.9,7.24,6.67,14.15,11.01,20.61,16.45,24.42,37.91,42.1,73.05,45.44,76.88,7.13,156.75-46.74,208.36-113.34-21.63-21.52-39.8-37.91-51.52-46.45C297.65,3.27,243.72,4.39,181.15,27.13,120.01,49.36,45.68,124.42,31.46,139.69c0,0,63.71,69.34,160.81,101.71-32.36-10.79-82.92-94.41-32.36-161.82,32.36-43.15,83.53-49.22,126.57-36.24,77.25,23.29,127.43,85.34,127.43,85.34,0,0-45.46,72.89-127.46,85.75,14.7-11.07,30.56-32.09,35.86-50.44,2.42-8.45,3.35-17.07,2.98-25.73-.92-18.51-7.11-35.04-18.87-49.29-12.2-14.94-27.8-24.51-46.74-28.71-.19-.04-.38-.08-.57-.12-7.49-1.59-15.21-2.07-22.87-1.91h0Zm6.47,109.35c9.9,.57,19.3,9.09,18.61,21.36-.48,8.24-6.46,16.27-15.64,18.26-1.87,.45-3.81,.6-5.89,.47-1.84-.09-3.75-.52-5.38-1.15-.06,0-.12-.05-.18-.05-1.86-.62-3.5-1.54-5.16-2.76-3.74-2.71-6.54-6.77-7.61-11.62-.43-1.46-.51-3.05-.53-4.7-.11-10.51,9.02-20.71,21.77-19.81Zm64.97-26.97c.74,12.49-9.57,21.63-20.04,21.44-10.98,.19-19.74-8.48-20.31-18.79-.73-12.31,9.02-20.83,18.86-21.38,12.2-.66,20.88,8.72,21.49,18.73Zm-66.23,9.89c-4.84,.06-8.88-3.99-8.89-8.96-.05-4.55,4.12-8.65,8.73-8.65,4.96,0,9,3.99,9.01,8.95-.01,4.55-4.18,8.72-8.85,8.65Zm-46.17-29.09c10.81-.18,19.49,8.2,20.24,18.56,.64,10.49-6.18,18.45-14.63,20.82-1.39,.48-2.92,.74-4.45,.81h-1.18c-1.83-.03-3.68-.23-5.35-.74-8.5-2.3-14.26-9.99-14.72-18.06-.26-5.25,1.34-9.93,4.17-13.56,.55-.8,1.23-1.48,1.84-2.16,3.05-2.93,6.91-4.89,11.13-5.51,.94-.11,1.94-.16,2.95-.15Zm26.21-24.52c-.79-17.63,20.35-28.46,33.43-15.3,5.98,6.02,8.69,14.79,5.21,22.53-3.02,6.71-9.64,11.43-17.19,11.8-12.2,.66-20.94-8.89-21.45-19.03Z"/></svg>