<?xml version="1.0" encoding="UTF-8"?><svg xmlns="http://www.w3.org/2000/svg" viewBox="0 0 1733.5 576.25"><defs><style>.cls-1{fill:#efd6ac;}.cls-2{fill:#e8c589;}.cls-3{fill:#fff;}.cls-4{fill:#fbffcc;}.cls-5{fill:#bcd173;}.cls-6{fill:#bed65e;}.cls-7{fill:#ababab;}.cls-8{fill:#ccaa7a;}.cls-9{fill:#d3b188;}.cls-10{fill:#adadad;}.cls-11{fill:#e29733;}.cls-12{fill:#11b6d1;}.cls-13{fill:#89959b;}.cls-14{fill:#96ab41;}.cls-15{fill:#2da3cc;}.cls-16{fill:#78ebff;}.cls-17{fill:#82e0ff;}.cls-18{fill:#4dc7e8;}.cls-19{mix-blend-mode:multiply;}.cls-20{isolation:isolate;}</style></defs><g class="cls-20"><g id="Calque_5"><g><g class="cls-19"><polygon class="cls-13" points="444.59 87.02 40.54 554.53 357.87 435.3 615.76 527.42 871.88 439.26 1120.03 527.42 1375.81 435.3 1692.96 554.53 1291.05 87.02 1138.28 32.59 1005.74 82.14 862.91 28.97 731.06 80.19 589 32.75 444.59 87.02"/></g><polygon class="cls-3" points="444.59 87.02 40.54 554.53 357.87 435.3 615.76 527.42 871.88 439.26 1120.03 527.42 1375.81 435.3 1692.96 554.53 1291.05 87.02 1138.28 32.59 1005.74 82.14 862.91 28.97 731.06 80.19 589 32.75 444.59 87.02"/><g><path class="cls-16" d="M809.26,249.9c-14.01-12.76-31.52-19.14-49.03-9.57-21.26,15.73-50.58,27.77-80.69,33.2l-24.82,90.96c44.02-22.37,90.15-24.66,133.53-44.42,24.51-15.95,38.52-44.66,21.01-70.18Z"/><path class="cls-9" d="M711.2,425.34c3.5-3.19-3.5-19.14,7-28.71,35.02-25.52,108.57-19.14,112.07-70.18-7,0-17.51,3.19-21.01,0-3.5-6.38,3.5-15.95,3.5-15.95,24.51-15.95,31.52-35.09,21.01-54.23-14.01-28.71-52.53-60.61-84.05-41.47-19.29,10.81-41.1,22.76-62.49,30.52l-7.69,28.2c30.12-5.43,59.44-17.47,80.69-33.2,17.51-9.57,35.02-3.19,49.03,9.57,17.51,25.52,3.5,54.23-21.01,70.18-43.39,19.76-89.51,22.05-133.53,44.42l-20.4,74.77c24.13,2.83,81.27,17.85,76.89-13.92Z"/><path class="cls-4" d="M739.71,181.83c13.74-6.87,17.18-24.05,17.18-34.35,2.35-19.94,1.49-41.07,1.39-62.04l-14.98,5.33c-.19,26.75-8.71,53.21-20.76,77.32-3.44,3.44,6.87,17.18,17.18,13.74Z"/><path class="cls-1" d="M838.51,192.11c-3.76-.17-11.85-1.23-9.81-4.18,5.57-8.08-29.36-8.08-12.44-11.4,10.51,0,28.02-3.19,24.51-9.57-10.51-19.14-49.03-12.76-56.03-22.33-15.45-19.71-14.54-41.9-9.6-65.2l-16.87,6c.1,20.97,.95,42.11-1.39,62.04,0,10.31-3.44,27.48-17.18,34.35-10.31,3.44-20.61-10.31-17.18-13.74,12.06-24.11,20.57-50.57,20.76-77.32l-15.39,5.48-40.68,149.09c21.39-7.77,43.2-19.71,62.49-30.52,31.52-19.14,70.04,12.76,84.05,41.47,10.51,19.14,3.5,38.28-21.01,54.23,0,0-7,9.57-3.5,15.95,1.84,1.68,5.63,1.59,9.83,1.13,5.97-.66,10.86,4.42,9.18,9.67-12.59,39.44-77.74,35.82-110.06,59.37-10.51,9.57-3.5,25.52-7,28.71,0,23.92-52.76,16.75-76.89,13.92l-14.19,52.01,246.7-83.99V203.12c-8.39-5.92-17.25-10.5-28.31-11.01Z"/><path class="cls-1" d="M782.43,76.84c-5.91,15.35-5.85,31.27,5.82,48.65,15.55,22.66,53.18,7.62,78.58,19.59V46.81s-84.4,30.03-84.4,30.03Z"/><path class="cls-17" d="M866.82,145.08c-25.4-11.97-63.03,3.07-78.58-19.59-11.66-17.39-11.73-33.3-5.82-48.65l-7.28,2.59c-4.94,23.3-5.86,45.49,9.59,65.2,7,9.57,45.53,3.19,56.03,22.33,3.5,6.38-14.01,9.57-24.51,9.57-22.47,4.4,15.19,3.32,12.97,12.11-.63,2.49,3.7,3.49,6.39,3.44,12.42-.24,22.09,4.62,31.2,11.04v-22.19c-.51-.4-1.01-.81-1.53-1.21-4.35-3.96-2.1-8.46,1.53-12.83v-21.8Z"/><path class="cls-5" d="M865.29,179.72c.52,.4,1.02,.8,1.53,1.21v-14.04c-3.63,4.37-5.88,8.87-1.53,12.83Z"/><path class="cls-8" d="M609.64,240.33c-21.01-22.33,38.52-41.47,35.02-73.37-2.24-53.13-28.9-75.49-94.02-56l-6.36,10.63c4.22-2,8.48-3.91,12.82-5.66,38.52-12.76,87.55,19.14,56.03,57.42-21.01,22.33-73.54,28.71-56.03,60.61,21.74,39.6,73.15,48.46,122.43,39.58l7.69-28.2c-29.09,10.56-57.41,13.38-77.59-5Z"/><path class="cls-2" d="M589,46.81l-38.36,64.15c61.33-15.01,91.78,2.88,94.02,56,3.5,31.9-56.03,51.04-35.02,73.37,20.18,18.38,48.5,15.56,77.59,5l40.68-149.09-138.91-49.43Z"/><path class="cls-8" d="M494.07,253.09c10.51,12.76,21.01,31.9,31.52,25.52,17.51-12.76-10.51-38.28-31.52-41.47,0-8.59,0-22.31-2.55-27.33l-27.81,46.51c9.06-5.24,20.28-10.57,30.36-3.23Z"/><path class="cls-12" d="M557.66,319.23c10.31-44.66,7.65-74.4-18.33-104.06-3.44-3.44-20.74-13.8-25.25-3.28-2.55,5.1,2.18,18.74,5.37,23.84-.12-.51,13.05,8.31,12.97,7.79,.09,.53-3.21,.82-3.09,1.34,1.11,1.77-.89-1.77,0,0-.89-1.77,2.29-4.72,1.19-6.5,4.68,19.41,33.67,26.54,20.28,49.97-10.31,17.18-34.35,0-51.53,10.31-3.44,3.44-7.74,12.02,3.44,17.18,10.31,3.44,24.05-3.44,30.92,3.44,20.61,17.18,41.22,41.22,72.14,27.48,13.74-3.44,13.74-13.74,10.31-20.61-17.18-20.61-61.83,3.44-58.4-6.87Z"/><path class="cls-18" d="M557.1,233.95c-17.51-31.9,35.02-38.28,56.03-60.61,31.52-38.28-17.51-70.18-56.03-57.42-4.34,1.76-8.6,3.66-12.82,5.66l-52.76,88.23c2.54,5.02,2.55,18.73,2.55,27.33,21.01,3.19,49.03,28.71,31.52,41.47-10.51,6.38-21.01-12.76-31.52-25.52-10.07-7.34-21.3-2.01-30.36,3.23l-24.63,41.18c24.77,7.09,49.17,20.47,72.5,41.72,35.02,31.9,84.05,63.8,126.08,35.09,5.64-3.67,11.33-6.9,17.06-9.81l24.82-90.96c-49.28,8.88-100.69,.02-122.43-39.58Zm48.64,112.76c-30.92,13.74-51.53-10.31-72.14-27.48-6.87-6.87-20.61,0-30.92-3.44-3.44-3.44-6.87-13.74-3.44-17.18,17.18-10.31,41.22,6.87,51.53-10.31,13.39-23.43-15.6-30.56-20.28-49.97-3.19-5.1-15.76-12.56-13.21-17.66,1.5-14.05,23.55,2.73,26.99,6.16,13.74,37.79,22.82,38.92,12.51,83.58-7.73,31.99,42.08-4.94,59.25,15.67,3.44,6.87,3.44,17.18-10.31,20.61Z"/><path class="cls-2" d="M423.94,322.81l-50.51,84.46,246.69,83.99,14.19-52.01c-74.86-8.79-137.07-79.03-203.28-112.8-2.34-1.35-4.7-2.56-7.09-3.64Z"/><path class="cls-8" d="M637.65,374.3c-42.03,28.71-91.06-3.19-126.08-35.09-23.33-21.25-47.73-34.63-72.5-41.72l-15.14,25.31c2.38,1.08,4.75,2.29,7.09,3.64,66.21,33.77,128.42,104.01,203.28,112.8l20.4-74.77c-5.73,2.91-11.42,6.14-17.06,9.81Z"/><path class="cls-9" d="M473.05,112.73c-10.47-1.36-20.29-4.33-29.41-8.61l-80.57,98.42c3.96-.13,7.93-.29,11.91-.49,65.22-5.94,112.23-53.36,169.29-80.46l6.36-10.63c-26.85,1.02-54.93,4.07-77.58,1.78Z"/><path class="cls-1" d="M450.1,96.24l-6.45,7.88c9.12,4.28,18.94,7.25,29.41,8.61,22.66,2.29,50.74-.76,77.58-1.78l38.36-64.15-138.91,49.43Z"/><path class="cls-16" d="M448.54,262.66c-41.5-2.1-92.1-13.87-131.83-3.47l-74.83,91.41c58.71-44.47,129.32-72.53,197.2-53.1l24.63-41.18c-6.69,3.87-12.19,7.7-15.17,6.34Z"/><path class="cls-16" d="M490.56,208.43c.36,.32,.67,.81,.96,1.38l52.76-88.23c-57.06,27.1-104.07,74.52-169.29,80.46-3.99,.2-7.96,.36-11.91,.49l-18.19,22.22c6.5,.43,13.04,1.32,19.6,2.81,42.03,9.57,84.05-35.09,126.08-19.14Z"/><path class="cls-9" d="M490.56,208.43c-42.03-15.95-84.05,28.71-126.08,19.14-6.55-1.49-13.1-2.38-19.6-2.81l-28.18,34.43c39.73-10.4,90.33,1.37,131.83,3.47,2.98,1.35,8.48-2.47,15.17-6.34l27.81-46.51c-.29-.57-.6-1.06-.96-1.38Z"/><path class="cls-1" d="M423.94,322.81c-36.92-16.74-79.09-1.77-111.99,13.21-28.02,12.76-56.03,22.33-87.55,38.28-1.28,.78-2.55,1.54-3.82,2.31l-10.34,12.63c8.77-2.15,17.96-2.05,27.96,2.12,0,0-17.18,10.31-13.74,13.74,34.35,30.92,58.4-24.05,85.88-34.35,17.18-3.44,48.09,10.31,30.92,27.48-13.08,11.21-28.17,21.42-40.89,33.92l73.07-24.88,50.51-84.46Z"/><path class="cls-4" d="M310.33,370.76c-27.48,10.31-51.53,65.27-85.88,34.35-3.44-3.44,13.74-13.74,13.74-13.74,12.59-18.38-19.18-4.27-27.96-2.12l-83.51,102.01,173.63-59.11c12.72-12.49,27.81-22.71,40.89-33.92,17.18-17.18-13.74-30.92-30.92-27.48Z"/><path class="cls-9" d="M241.88,350.6l-21.3,26.02c1.27-.77,2.54-1.54,3.82-2.31,31.52-15.95,59.54-25.52,87.55-38.28,32.9-14.98,75.06-29.96,111.99-13.21l15.14-25.31c-67.88-19.43-138.48,8.63-197.2,53.1Z"/><path class="cls-8" d="M1467.65,380.68c18.73,1.22,36.94,2.45,53.68,5.98l-16.6-20.27c-7.02,1.44-14.03,3.18-21.05,4.1-4.54,.59-8.58-2.77-8.98-7.33-2.73-30.79-40.91-33.74-70.09-36.7-7,0-7-28.71,10.51-22.33,14.01,6.38,31.52,22.33,42.03,12.76,1.45-1.1,2.88-2.23,4.3-3.39l-14.52-17.74c-3,7.81-5.62,14.75-10.79,14.75-21.01,0-28.02-22.33-52.53-6.38-10.98,4.81,3.5,9.57,0,15.95-3.5,3.19-10.51-6.38-17.51-3.19v3.19c-14.01,0-17.51-12.76-31.52-12.76,17.51,51.04,80.55,31.9,122.57,47.85,10.51,3.19-3.5,25.52,10.51,25.52Z"/><path class="cls-9" d="M1404.62,326.45c29.87,3.02,69.17,6.05,70.23,38.93,.12,3.66,2.73,6.75,6.35,7.29,11.84,1.78,14.92-4.52,23.54-6.29l-43.29-52.88c-1.42,1.15-2.85,2.29-4.3,3.39-10.51,9.57-28.02-6.38-42.03-12.76-17.51-6.38-17.51,22.33-10.51,22.33Z"/><path class="cls-14" d="M1155.97,55.32c1.61-.93,3.21-1.85,4.82-2.77l-16.12-5.73,8.28,13.84c.45-2.63,1.32-4.56,3.02-5.33Z"/><path class="cls-8" d="M1229.51,87.21c3.19-2.11,6.09-4.51,8.81-7.08l-77.54-27.59c-1.6,.92-3.21,1.85-4.82,2.77-1.71,.78-2.57,2.7-3.02,5.33l12.85,21.49c3.17-1.88,5.43-4.5,7.68-4.5,21.01,0,38.52,22.33,56.03,9.57Z"/><path class="cls-8" d="M1255.8,232.64l34.76,58.13c1.86,2.28,3.69,4.59,5.48,6.98,3.5,3.19,17.51-9.57,24.51,3.19-3.55,6.47-9.8,11.28-16.01,13.23l5.51,9.21c12.31-5.14,20.35-14.07,14-25.62-14.8-26.96-44.59-44.82-68.26-65.1Z"/><path class="cls-8" d="M1551.04,422.96c-10.2,6.34-21.72,10.6-34.36,11.95-21.16,1.61-50.31-2.44-76.28-.35l166.56,56.7-55.92-68.31Z"/><path class="cls-12" d="M1345.64,264.34c-14.76-4.07-22.83-8.82-4.89,10.15,6.84,7.12,20.67-10.26,27.57,.09,3.39,3.39-3.27,10.14-3.43,13.61,0,.07,.06,.13,.13,.14,23.08,1.52,47.5-1.12,67.14-10.34,.08-.04,.1-.13,.04-.2l-14.74-18s-.1-.06-.15-.03c-19.75,9.74-47.87,5.2-71.68,4.58Z"/><path class="cls-12" d="M1447.35,411.95c3.39-3.44-.02-10.28-3.45-13.71,0,0-.02-.01-.02-.02-20.61-13.73-51.51-20.6-65.25,3.44-2.22,2.77-4.32,6.02-6.25,9.58-.04,.07,0,.16,.07,.18l32.97,11.23c.06,0,.11-.02,.18-.03,10.24-7.33,27.74-3.68,41.7-10.64,.02,0,.04-.02,.05-.04Z"/><path class="cls-8" d="M1521.36,386.69s-.04-.04-.07-.04c-16.72-3.52-34.92-4.75-53.63-5.97-14.01,0,0-22.33-10.51-25.52-41.3-15.67-102.89,2.54-121.62-45.26-.49-1.25,.6-2.58,1.93-2.4,11.69,1.59,15.64,12.57,28.64,12.57v-3.19c6.98-3.18,13.97,6.33,17.48,3.22,.02-.02,.04-.04,.05-.06,3.44-6.35-7.32-8.61-.02-15.91,24.51-15.95,31.52,6.38,52.53,6.38,5.15,0,7.77-6.9,10.76-14.68,.02-.04,0-.09-.02-.13l-14.5-17.71s-.1-.06-.15-.03c-17.37,8.17-38.5,11.19-59.13,10.72-4.01-.09-6.57-4.28-4.88-7.92,1.09-2.34,1.66-4.62,.1-6.18-8.34-12.5-26.78,15.45-30.81-8.18,.71-.85,1.07-1.27,1.78-2.12,24.98-.26,56.43,6.09,77.97-4.49,.07-.04,.11-.12,.05-.19-1.08-1.32-11.2-13.68-11.77-14.38-.02-.03-.05-.03-.09-.03-22.22,.81-45.01-1.78-67.37-8.05,0,0-.02,0-.02,0-13.99-6.38-21-19.12-31.49-25.5-.01,0-.02,0-.03-.01-27.07-8.97-55.85-16.38-80.3-28.84-.11-.06-.22,.06-.16,.17l29.71,49.68s.02,.02,.03,.03c23.67,20.28,53.45,38.14,68.25,65.09,6.32,11.52-1.64,20.42-13.87,25.57-.07,.03-.1,.11-.06,.18l50.08,83.74s.04,.04,.07,.05l11.93,4.06c.06,.02,.12,0,.15-.06,1.93-3.57,4.04-6.84,6.27-9.62,13.74-24.04,44.64-17.18,65.25-3.44,0,0,.02,.01,.02,.02,3.42,3.43,6.84,10.27,3.45,13.71-.01,.01-.03,.03-.05,.04-13.74,6.85-30.89,3.43-41.19,10.29-.23,.11-.4,.27-.62,.39l34.89,11.88s.03,0,.05,0c25.96-2.09,55.1,1.96,76.26,.35,12.59-1.35,24.07-5.57,34.24-11.88,.07-.04,.08-.13,.03-.19l-29.59-36.15Z"/><path class="cls-18" d="M1208.5,128.68c34.06,12.77,71.53,11.95,98.7-3.61l-23.6-28.83-45.28-16.11c-2.72,2.58-5.62,4.97-8.81,7.08-17.51,12.76-35.02-9.57-56.03-9.57-2.25,0-4.51,2.61-7.68,4.5l30.01,50.18c3.08-3.7,7.4-5.57,12.69-3.64Z"/><path class="cls-8" d="M1338.08,237.14c22.39,6.27,45.2,8.87,67.45,8.05l-98.33-120.12c-27.17,15.56-64.64,16.39-98.7,3.61-5.29-1.93-9.61-.06-12.69,3.64l30.05,50.26c24.54,12.58,53.48,20.03,80.69,29.04,10.51,6.38,17.51,19.14,31.52,25.52Z"/><path class="cls-9" d="M1320.57,300.94c-7-12.76-21.01,0-24.51-3.19-1.79-2.38-3.63-4.7-5.48-6.98l13.99,23.39c6.21-1.94,12.46-6.76,16.01-13.23Z"/><path class="cls-2" d="M904.17,301.8c-14.98,2.38-26.78-11.54-20.54-24.18,10.48-21.2,29.49-39.64,2.67-59.63-6.75-4.91-12.97-10.29-19.48-14.88v204.15s94.32,32.11,94.32,32.11c-.82-9.56-.22-19.54,2.2-30,7-15.95,24.51-25.52,42.03-35.09,10.51-6.38,7-28.71-3.5-41.47-22.96-31.36-60.02-37.03-97.7-31.03Z"/><path class="cls-15" d="M875.8,151.01c-2.75-2.5-5.77-4.42-8.97-5.93v21.8c5.15-6.2,13.08-12.13,8.97-15.88Z"/><path class="cls-2" d="M973.86,269.04c-7-3.19-14.01-15.95-14.01-22.33,0-54.23,10.51-92.51-31.52-140.35-8.17-9.3-4.42-22.94,1.5-37.12l-63-22.42v98.27c3.2,1.51,6.22,3.43,8.97,5.93,4.11,3.74-3.82,9.68-8.97,15.88v14.04c40.64,31.73,47.19,72.68,22.98,113.63,42.03,0,94.56-22.33,126.08,3.19,14.01,12.76,7,35.09,7,60.61,3.5,25.52-31.52,31.9-45.53,51.04-6.68,10.64-8.54,22.01-7.19,33.07l143.35,48.8-55.43-203.15c-25.77-9.18-56.52-10.66-84.24-19.07Z"/><path class="cls-8" d="M1005.38,265.85c-45.53-15.95-24.51-57.42-14.01-95.7,3.5-12.76-28.02-25.52-38.52-41.47-7-6.38-10.51-15.95-10.51-22.33,3.13-10.26,5.01-20.43,6.04-30.52l-18.55-6.6c-5.93,14.18-9.67,27.82-1.5,37.12,42.03,47.85,31.52,86.13,31.52,140.35,0,6.38,7,19.14,14.01,22.33,27.71,8.41,58.47,9.9,84.24,19.07l-6.58-24.12c-15.47,3.89-31.97,5.54-46.14,1.86Z"/><path class="cls-15" d="M1015.88,297.75c-28.06-22.72-72.78-7.51-111.91-3.9-6.19,.57-10.75-5.14-8.36-10.37,16.94-37.18,30.48-66.83-28.78-102.54v22.19c6.51,4.59,12.73,9.96,19.48,14.88,28.09,20.93,5.91,40.17-4.1,62.65-5.22,11.73,6.06,23.86,19.72,21.52,38.45-6.58,76.54-1.32,99.95,30.66,10.51,12.76,14.01,35.09,3.5,41.47-17.51,9.57-35.02,19.14-42.03,35.09-2.42,10.46-3.03,20.44-2.2,30l9.02,3.07c-1.36-11.06,.51-22.42,7.19-33.07,14.01-19.14,49.03-25.52,45.53-51.04,0-25.52,7-47.85-7-60.61Z"/><path class="cls-2" d="M952.84,128.68c10.51,15.95,42.03,28.71,38.52,41.47-10.51,38.28-31.52,79.75,14.01,95.7,14.17,3.69,30.67,2.03,46.14-1.86l-45.77-167.75-57.36-20.41c-1.03,10.1-2.91,20.26-6.04,30.52,0,6.38,3.5,15.95,10.51,22.33Z"/><path class="cls-9" d="M1243.52,221.19c-35.02-35.09-136.58-35.09-133.08-79.75,3.5-15.95,59.54-19.14,49.03-57.42,2.51,0,4.56-.83,6.33-1.88l-12.85-21.49c-1.39,8.18,1.32,23.29-3.98,32.95-17.51,28.71-59.54,22.33-77.05,47.85-17.51,25.52,24.51,31.9,45.53,41.47,63.92,27.58,127.83,52.23,173.13,107.86l-34.76-58.13c-4.34-3.71-8.49-7.5-12.29-11.45Z"/><path class="cls-16" d="M1195.81,132.32l-30.01-50.18c-1.77,1.05-3.82,1.88-6.33,1.88,10.51,38.28-45.53,41.47-49.03,57.42-3.5,44.66,98.06,44.66,133.08,79.75,3.79,3.95,7.95,7.74,12.29,11.45l-29.94-50.06c-10.2-5.23-19.65-11.32-27.87-18.81-9.78-4.45-9.31-22.89-2.18-31.45Z"/><path class="cls-6" d="M1197.99,163.77c8.22,7.49,17.68,13.58,27.87,18.81l-30.05-50.26c-7.13,8.56-7.6,26.99,2.18,31.45Z"/><path class="cls-1" d="M1298.99,304.85l-8.42-14.08c-45.29-55.63-109.2-80.28-173.13-107.86-21.01-9.57-63.04-15.95-45.53-41.47,17.51-25.52,59.54-19.14,77.05-47.85,5.3-9.65,2.59-24.77,3.98-32.94l-8.28-13.84-6.13,2.18c.64,7.65-.45,15.38-3.8,22.92-17.18,34.35-58.4-6.87-82.44,17.18-3.44,6.87-10.31,17.18-10.31,27.48-14.94,0-18.7-12.18-20.14-26.06l-16.12,5.74,45.77,167.75c11.3-2.84,22.04-6.86,30.91-10.9,24.51-9.57,56.03,15.95,87.55,9.57,42.03-6.38,84.05,15.95,119.07,47.85,.03,.05,.07,.09,.1,.14,4.11,5.45,13.31,.01,9.84-5.8Z"/><path class="cls-4" d="M1042,116.56c0-10.31,6.87-20.61,10.31-27.48,24.05-24.05,65.27,17.18,82.44-17.18,3.35-7.53,4.44-15.27,3.8-22.92l-116.68,41.52c1.44,13.88,5.2,26.06,20.14,26.06Z"/><path class="cls-4" d="M1182.83,432.59c-13.74,10.31-6.87-20.61-13.74-24.05-30.92-13.74-37.79,27.48-41.22,48.09-1.72,10.3-2.15,20.38-1.45,30.24l164.02-55.84c-1.23-2.93-2.71-5.85-4.56-8.75-27.48-34.35-72.14-10.31-103.05,10.31Z"/><path class="cls-1" d="M1320.57,403.01c-3.93-6.8-8.46-12.47-13.45-17.24-12.75-11.47-54.2-14.02-89.97-15.79-33.3-.66-40.31,3.98-71.68,10.71-45.53,12.76-31.52-47.85-52.53-70.18-9.54-10.86-21.53-17.65-34.84-22.39l55.43,203.15,12.9-4.39c-.69-9.87-.27-19.95,1.45-30.24,3.44-20.61,10.31-61.83,41.22-48.09,6.87,3.44,0,34.35,13.74,24.05,30.92-20.61,75.57-44.66,103.05-10.31,1.84,2.9,3.33,5.82,4.56,8.75l37.12-12.64c-1.91-5.15-4.19-10.28-7-15.39Z"/><path class="cls-9" d="M1113.94,291.37c49.03-38.28,105.06-3.19,150.59,31.9,9.58,6.98,30.67,6.31,45.53,.11l-11.08-18.52c3.83,6.4-6.49,10.38-9.94,5.66-35.02-31.9-77.05-54.23-119.07-47.85-31.52,6.38-63.04-19.14-87.55-9.57-8.87,4.04-19.62,8.06-30.91,10.9l6.58,24.12c13.31,4.74,25.29,11.53,34.84,22.39,21.01,22.33,7,82.94,52.53,70.18,31.37-6.72,139.19-2.14,172.49-1.48-35.92-28.48-147-22.73-182.99-24.04-31.52-3.19-42.03-47.85-21.01-63.8Z"/><path class="cls-6" d="M1280.88,378.2c24.82,4.3,35.76,18.01,39.69,24.81,2.8,5.11,5.09,10.24,7,15.39l11.06-3.77c-8.44-11.94-21.97-48.03-57.75-36.44Z"/><path class="cls-16" d="M1310.06,323.37c-14.86,6.2-35.95,6.87-45.53-.11-45.53-35.09-101.56-70.18-150.59-31.9-21.01,15.95-10.51,60.61,21.01,63.8,35.99,1.31,76.12,2.1,112.37,9.2,23.11,3.39,40.33,5.63,59.79,16.08,12.36,7.47,23.07,22.25,31.51,34.19l21.62-7.36-50.18-83.9Z"/></g><g class="cls-19"><polygon class="cls-7" points="683.63 138.59 666.7 134.71 669.91 124.02 686.84 127.9 683.63 138.59"/><polygon class="cls-7" points="683.63 138.59 666.7 134.71 669.91 124.02 686.84 127.9 683.63 138.59"/><polygon class="cls-7" points="696.99 126.07 684.68 123.25 687.01 115.48 699.32 118.29 696.99 126.07"/><polygon class="cls-7" points="675.63 122.74 658.71 118.86 661.92 108.17 678.84 112.05 675.63 122.74"/><polygon class="cls-7" points="660.92 127.67 652.46 125.74 654.06 120.39 662.52 122.33 660.92 127.67"/><polygon class="cls-7" points="667.26 106.54 650.34 102.66 653.55 91.98 670.47 95.85 667.26 106.54"/><polygon class="cls-7" points="634.38 106.28 625.92 104.34 627.52 99 635.98 100.94 634.38 106.28"/><polygon class="cls-7" points="645.42 128.28 633.12 125.46 635.45 117.69 647.76 120.51 645.42 128.28"/><polygon class="cls-7" points="654.79 117.96 637.87 114.09 641.07 103.4 658 107.27 654.79 117.96"/><polygon class="cls-7" points="710.51 123.71 702.05 121.78 703.66 116.43 712.12 118.37 710.51 123.71"/></g><g><polygon class="cls-3" points="683.19 135.43 666.26 131.55 669.47 120.86 686.39 124.74 683.19 135.43"/><polygon class="cls-3" points="683.19 135.43 666.26 131.55 669.47 120.86 686.39 124.74 683.19 135.43"/><polygon class="cls-3" points="696.54 122.91 684.24 120.09 686.57 112.32 698.88 115.14 696.54 122.91"/><polygon class="cls-3" points="675.19 119.58 658.27 115.7 661.47 105.01 678.4 108.89 675.19 119.58"/><polygon class="cls-3" points="660.48 124.51 652.01 122.58 653.62 117.23 662.08 119.17 660.48 124.51"/><polygon class="cls-3" points="666.82 103.38 649.9 99.51 653.1 88.82 670.03 92.69 666.82 103.38"/><polygon class="cls-3" points="633.94 103.12 625.48 101.18 627.08 95.84 635.54 97.78 633.94 103.12"/><polygon class="cls-3" points="644.98 125.12 632.67 122.3 635.01 114.53 647.31 117.35 644.98 125.12"/><polygon class="cls-3" points="654.35 114.8 637.42 110.93 640.63 100.24 657.56 104.12 654.35 114.8"/><polygon class="cls-3" points="710.07 120.55 701.61 118.62 703.22 113.27 711.68 115.21 710.07 120.55"/></g><g class="cls-19"><polygon class="cls-10" points="1138.28 254.89 1121.84 259.85 1116.39 244.88 1132.83 239.91 1138.28 254.89"/><polygon class="cls-10" points="1147.19 233.88 1135.23 237.49 1131.27 226.6 1143.23 222.99 1147.19 233.88"/><polygon class="cls-10" points="1130.97 234.81 1114.53 239.77 1109.08 224.8 1125.52 219.83 1130.97 234.81"/><polygon class="cls-10" points="1075.55 261.36 1067.33 263.84 1064.61 256.36 1072.83 253.88 1075.55 261.36"/><polygon class="cls-10" points="1095.79 253.74 1079.35 258.7 1073.9 243.73 1090.34 238.77 1095.79 253.74"/><polygon class="cls-10" points="1169.88 237.04 1153.44 242 1147.99 227.03 1164.43 222.06 1169.88 237.04"/><polygon class="cls-10" points="1115.63 259.46 1103.67 263.07 1099.71 252.18 1111.67 248.57 1115.63 259.46"/><polygon class="cls-10" points="1112.09 244.67 1095.65 249.63 1090.2 234.65 1106.64 229.69 1112.09 244.67"/><polygon class="cls-10" points="1179.61 228.43 1171.39 230.91 1168.66 223.43 1176.88 220.95 1179.61 228.43"/></g><g><polygon class="cls-3" points="1138.28 251.7 1121.84 256.66 1116.39 241.69 1132.83 236.72 1138.28 251.7"/><polygon class="cls-3" points="1147.19 230.69 1135.23 234.3 1131.27 223.41 1143.23 219.8 1147.19 230.69"/><polygon class="cls-3" points="1130.97 231.62 1114.53 236.58 1109.08 221.61 1125.52 216.64 1130.97 231.62"/><polygon class="cls-3" points="1075.55 258.17 1067.33 260.65 1064.61 253.17 1072.83 250.69 1075.55 258.17"/><polygon class="cls-3" points="1095.79 250.55 1079.35 255.51 1073.9 240.54 1090.34 235.58 1095.79 250.55"/><polygon class="cls-3" points="1169.88 233.85 1153.44 238.81 1147.99 223.84 1164.43 218.87 1169.88 233.85"/><polygon class="cls-3" points="1115.63 256.27 1103.67 259.88 1099.71 248.99 1111.67 245.38 1115.63 256.27"/><polygon class="cls-3" points="1112.09 241.48 1095.65 246.44 1090.2 231.46 1106.64 226.5 1112.09 241.48"/><polygon class="cls-3" points="1179.61 225.24 1171.39 227.72 1168.66 220.24 1176.88 217.76 1179.61 225.24"/></g><g class="cls-19"><polygon class="cls-7" points="720.04 411.24 710.46 414.59 706.78 405.86 716.36 402.51 720.04 411.24"/><polygon class="cls-7" points="755.2 405.84 741.57 410.61 736.34 398.2 749.97 393.43 755.2 405.84"/><polygon class="cls-7" points="727.56 396.6 708.82 403.15 701.63 386.08 720.37 379.53 727.56 396.6"/><polygon class="cls-7" points="681.93 412.55 672.56 415.82 668.97 407.29 678.33 404.02 681.93 412.55"/><polygon class="cls-7" points="845.91 362.34 832.29 367.1 827.06 354.69 840.68 349.93 845.91 362.34"/><polygon class="cls-7" points="697.5 420.57 686.53 424.41 682.32 414.42 693.29 410.58 697.5 420.57"/><polygon class="cls-7" points="813.66 378.51 804.29 381.78 800.7 373.25 810.06 369.98 813.66 378.51"/><polygon class="cls-7" points="800.51 387.78 781.77 394.33 774.58 377.27 793.31 370.72 800.51 387.78"/><polygon class="cls-7" points="809.58 363.03 795.95 367.79 790.72 355.38 804.35 350.62 809.58 363.03"/><polygon class="cls-7" points="783.62 367.43 772.13 371.45 767.72 360.98 779.21 356.96 783.62 367.43"/><polygon class="cls-7" points="735.81 410.4 726.44 413.67 722.84 405.14 732.21 401.87 735.81 410.4"/><polygon class="cls-7" points="751.27 388.53 732.53 395.08 725.34 378.02 744.08 371.47 751.27 388.53"/><polygon class="cls-7" points="701.1 403.62 689.4 407.71 684.9 397.05 696.61 392.96 701.1 403.62"/><polygon class="cls-7" points="774.56 394.18 760.94 398.94 755.71 386.53 769.33 381.77 774.56 394.18"/><polygon class="cls-7" points="769.59 377.23 755.75 382.07 750.44 369.46 764.28 364.63 769.59 377.23"/><polygon class="cls-7" points="826.36 371.62 817 374.89 813.4 366.36 822.77 363.09 826.36 371.62"/></g><g><polygon class="cls-3" points="721.77 406.45 712.19 409.8 708.52 401.08 718.1 397.73 721.77 406.45"/><polygon class="cls-3" points="756.93 401.06 743.3 405.82 738.07 393.41 751.7 388.65 756.93 401.06"/><polygon class="cls-3" points="729.29 391.81 710.56 398.36 703.37 381.3 722.1 374.75 729.29 391.81"/><polygon class="cls-3" points="683.66 407.76 674.29 411.04 670.7 402.51 680.07 399.23 683.66 407.76"/><polygon class="cls-3" points="847.65 357.55 834.02 362.32 828.79 349.91 842.42 345.14 847.65 357.55"/><polygon class="cls-3" points="699.23 415.79 688.26 419.62 684.05 409.63 695.02 405.79 699.23 415.79"/><polygon class="cls-3" points="815.39 373.72 806.02 377 802.43 368.47 811.8 365.19 815.39 373.72"/><polygon class="cls-3" points="802.24 382.99 783.5 389.54 776.31 372.48 795.05 365.93 802.24 382.99"/><polygon class="cls-3" points="811.31 358.24 797.69 363.01 792.46 350.6 806.08 345.83 811.31 358.24"/><polygon class="cls-3" points="785.36 362.64 773.86 366.66 769.45 356.19 780.95 352.17 785.36 362.64"/><polygon class="cls-3" points="737.54 405.61 728.17 408.89 724.58 400.36 733.94 397.08 737.54 405.61"/><polygon class="cls-3" points="753 383.75 734.27 390.3 727.08 373.23 745.81 366.68 753 383.75"/><polygon class="cls-3" points="702.84 398.84 691.13 402.93 686.63 392.26 698.34 388.17 702.84 398.84"/><polygon class="cls-3" points="776.29 389.39 762.67 394.16 757.44 381.75 771.06 376.98 776.29 389.39"/><polygon class="cls-3" points="771.32 372.45 757.48 377.28 752.17 364.68 766.01 359.84 771.32 372.45"/><polygon class="cls-3" points="828.1 366.84 818.73 370.11 815.13 361.58 824.5 358.3 828.1 366.84"/></g><g><path class="cls-11" d="M1196.4,461.33c.15,.19,.28,.38,.42,.58,2.43-1.08,4.95-1.95,7.49-2.66-.63-.91-1.3-1.82-2.04-2.74-2.59-3.14-6.03-5.97-10.22-8.39-6.93-4-15.74-6.71-28.56-8.77-4.35-.71-8.86-1.3-13.48-1.9-6.49-.84-13.21-1.71-20.02-3.01-6.83-1.33-12.3-2.86-17.25-4.83-.89-.33-1.75-.73-2.61-1.13-.52-.24-1.03-.48-1.43-.65l-4.23-2.28c-2.56-1.29-4.9-2.78-7.37-4.37l-.79-.51c-1.84-1.12-3.57-2.44-5.39-3.84-.8-.61-1.59-1.22-2.27-1.7-.68-.61-1.38-1.21-2.07-1.81-1.74-1.51-3.55-3.06-5.16-4.84-4.65-4.66-8.67-9.92-11.95-15.65-5.89-9.96-10.03-21.81-13.44-38.42-.86-4.06-1.64-8.14-2.42-12.23-1.82-9.55-3.71-19.44-6.68-28.86-4.61-14.81-11.89-27.12-21.02-35.59-4.9-4.7-10.26-8.71-15.88-11.86-5.03-3.16-11-5.61-17.75-7.27-9.22-2.21-18.06-2.86-26.6-3.49-2.52-.18-4.99-.37-7.41-.58-10.1-.9-19.74-2.08-26.63-6.67-3.07-2.03-5.53-4.84-7.14-8.17-1.59-3.1-2.09-6.33-2.53-9.12-.62-5.32-.2-9.66,.1-12.83l.79-5.92-3.4-.49-.76,5.07-.11,1.04c-.35,3.31-.83,7.85-.22,13.61,.44,2.97,.98,6.67,2.78,10.28,1.84,3.92,4.73,7.29,8.35,9.72,7.58,5.16,17.75,6.53,28.38,7.59,2.43,.24,4.9,.45,7.43,.66,8.39,.7,17.08,1.42,25.89,3.64,6.24,1.6,11.74,3.91,16.44,6.92,5.31,3.06,10.32,6.87,14.91,11.36,8.57,8.11,15.09,19.43,19.36,33.64,2.78,9.14,4.55,18.91,6.26,28.36,.74,4.11,1.49,8.23,2.31,12.32,3.37,17.28,7.6,29.72,13.72,40.33,3.48,6.21,7.77,11.94,12.67,16.95,1.74,1.96,3.69,3.68,5.57,5.33,.68,.6,1.36,1.2,2.15,1.91,.79,.6,1.57,1.21,2.35,1.81,1.87,1.46,3.81,2.97,5.86,4.26l.49,.32c2.63,1.72,5.35,3.5,8.07,4.9l4.39,2.41c.51,.23,1.01,.47,1.51,.71,1.01,.48,2.01,.96,3,1.34,5.31,2.17,11.15,3.88,18.4,5.36,7.08,1.42,13.9,2.37,20.5,3.29,4.55,.63,8.94,1.25,13.15,1.98,11.73,1.99,19.98,4.57,25.97,8.12,3.4,2.02,6.14,4.3,8.12,6.76Z"/><path class="cls-11" d="M870.77,307.03l-1.59-8.77-3.38,.6,1.54,8.78c.3,1.71,.37,3.75,.45,6.11,.05,1.38,.1,2.84,.19,4.25-.01,1.31-.14,2.67-.28,4.1-.08,.83-.16,1.68-.21,2.51l-.12,1.33c-.06,.75-.12,1.53-.21,2.19l-.85,3.89c-2.3,11.37-8.11,23.53-16.36,34.24-9.24,12.05-22,23.66-36.91,33.58-15.43,10.3-33.2,19.53-52.82,27.44-21.19,8.4-42.62,14.94-63.71,19.45-11.09,2.48-22.75,4.47-34.67,5.94-13.16,1.63-24.88,2.4-35.86,2.27-6.54-.06-12.45-.38-18.1-.98-1.91-.16-3.82-.48-5.74-.78-1.1-.18-2.2-.36-3.21-.5-1.89-.36-3.82-.77-5.74-1.18l-3.23-.68c-10.36-2.15-21.37-5.03-35.68-9.36-20.47-6.39-42.39-14.65-68.99-25.99-5.82-2.47-11.6-4.95-17.36-7.42-16.84-7.23-32.75-14.07-48.92-20.26-25.31-9.61-45.96-15.54-64.98-18.68-21.12-3.52-41.61-4.02-60.88-1.48-16.74,2.2-33.5,6.67-49.81,13.26l-1.82,.7c-1.17,.45-2.33,.89-3.51,1.39l-14.38,6.63c-2.06,1.12-4.07,2.18-6.02,3.21-3.54,1.87-6.89,3.64-9.98,5.44l-9.11,5.53c-1.52,1.98-3.12,3.89-4.7,5.82-2.49,3.03-5.01,6.02-7.61,8.96-.33,.37-.65,.75-.99,1.12-1.19,1.49-2.34,3.02-3.57,4.46l.17,.25,8.75-6.02c.85-.57,1.75-1.2,2.73-1.88,1.79-1.24,3.82-2.65,6.05-4.1l12.2-7.49c2.94-1.74,6.18-3.47,9.61-5.31,1.94-1.04,3.94-2.11,5.89-3.18l13.96-6.53c1.07-.45,2.17-.88,3.28-1.31l1.84-.72c15.71-6.46,31.85-10.86,47.99-13.08,18.56-2.55,38.36-2.18,58.81,1.11,18.61,2.96,38.88,8.67,63.8,17.97,16.11,6.06,32.06,12.81,48.94,19.95,5.73,2.42,11.49,4.86,17.28,7.28,26.85,11.27,48.99,19.47,69.69,25.8,14.49,4.29,25.67,7.15,36.23,9.28l3.15,.65c1.99,.42,3.97,.83,6.09,1.21,1.07,.14,2.13,.31,3.19,.48,1.96,.31,3.99,.63,6.03,.79,5.75,.59,11.84,.89,18.64,.92h.78c10.98,0,22.68-.82,35.74-2.51,12.07-1.55,23.88-3.64,35.08-6.21,21.29-4.68,42.93-11.42,64.33-20.04,19.87-8.14,37.86-17.62,53.45-28.16,15.22-10.25,28.24-22.24,37.66-34.68,8.53-11.2,14.53-23.94,16.86-35.84l.85-4c.12-.86,.18-1.71,.25-2.55l.1-1.3c.05-.85,.13-1.68,.2-2.49,.13-1.53,.26-2.99,.27-4.52-.11-1.5-.16-2.92-.22-4.26-.1-2.5-.18-4.65-.53-6.61Z"/><path class="cls-11" d="M796.69,185.23c-3.09-2.31-6.64-4.13-10.54-5.39-5.41-1.77-11.92-1.89-18.31-.31-6.28,1.49-13.26,4.55-20.73,9.09-5.34,3.21-10.69,6.92-16.36,10.84l-6.15,4.22c-7.24,4.84-14.73,9.85-23.36,12.09-3.31,.81-8.21,1.3-12.92-1.04-.61-.26-1.16-.64-1.71-1.02-.4-.27-.8-.54-1.09-.7-.57-.4-1.07-.88-1.58-1.35-.35-.33-.7-.65-1.04-.94-.52-.46-.99-1.05-1.46-1.63-.31-.38-.62-.76-.95-1.13-.72-.8-1.17-1.55-1.86-2.7-1.02-1.84-1.42-3.91-1.17-5.99,.23-1.95,1.01-4.01,2.38-6.29,2.42-3.98,5.7-7.48,9.88-11.48,2.92-2.77,5.95-5.45,8.98-8.13,4.84-4.28,9.85-8.71,14.37-13.51,3.31-3.61,7.03-7.99,9.49-13.13,2.16-4.54,3.42-9.75,3.75-15.49,.5-8.98-2.19-18.26-8.24-28.38-2.58-4.34-5.32-8.35-7.96-12.23-.11-.16-.2-.3-.31-.46-2.24-.79-4.49-1.62-6.62-2.65,1.14,1.77,2.32,3.55,3.55,5.39,2.57,3.85,5.23,7.84,7.7,12.09,5.5,9.41,7.91,17.9,7.38,25.96-.35,5.15-1.51,9.78-3.46,13.76-2.23,4.55-5.69,8.54-8.78,11.82-4.38,4.55-9.35,8.85-14.15,13.01-3.09,2.68-6.2,5.37-9.23,8.18-3.66,3.45-7.81,7.53-10.89,12.48-1.8,2.93-2.84,5.67-3.19,8.37-.43,3.15,.17,6.44,1.71,9.28,.92,1.63,1.75,2.85,2.51,3.7,.29,.33,.56,.67,.83,1.01,.57,.72,1.15,1.43,1.88,2.12,.33,.29,.64,.59,.96,.89,.71,.67,1.43,1.35,2.33,2,.37,.23,.73,.47,1.09,.72,.78,.53,1.59,1.09,2.46,1.48,3.06,1.58,6.59,2.37,10.3,2.37,2.09,0,4.24-.25,6.4-.77,5.49-1.27,10.29-3.65,14.27-5.82,4.49-2.45,8.73-5.26,12.15-7.53l5.27-3.56c5.62-3.8,10.93-7.4,16.09-10.43,6.94-4.13,13.32-6.87,18.97-8.15,5.27-1.23,10.52-1.12,14.77,.33,3.14,1.06,6.08,2.6,8.47,4.44l4.11,3.3,4.61-5.13-4.6-3.62Z"/><path class="cls-11" d="M1312.79,412.79c-.68-2.38-1.88-4.93-3.68-7.84-1.72-2.6-3.92-5.02-6.54-7.18-4.82-3.98-11.24-6.99-19.64-9.21-6.94-1.76-14.91-2.91-24.37-3.51-14.25-.91-30.05-.55-46.78-.18-3.65,.08-7.36,.17-11.12,.24-10.23,.19-21.27,.3-32.76-.14-9.38-.38-21.76-1.17-34.45-3.93-13.84-3.08-24.44-7.78-32.33-14.32-9.83-8.98-18.36-18.57-25.33-28.46-4.34-6.36-7.12-11.74-8.75-16.94-1.51-4.65-2.71-11.51,.21-17.76,2.11-4.84,6.48-9.24,12.98-13.09,5.17-2.98,11.21-5.52,18.46-7.77,17.66-5.36,36.56-8.26,54.84-11.06,8.98-1.38,18.27-2.8,27.37-4.51,8.48-1.59,14.9-3.11,20.85-4.96,4.18-1.36,7.31-2.62,10.17-4.1,2.63-1.39,6.43-3.67,8.94-7.37,2.81-3.9,2.51-9.04,1.41-12.23-1.16-3.52-2.9-6.77-5.33-9.96-4.03-5.22-9.54-9.7-16.86-13.7-12.8-6.89-27.03-10.7-39.38-13.74-9.92-2.37-19.91-4.35-29.57-6.27-3.3-.66-6.6-1.31-9.86-1.98-14.18-2.91-25.93-5.45-37.38-9.43-4.85-1.74-11.09-4.21-16.4-7.94-5.3-3.65-8.73-8.32-9.65-13.16-1.18-6.12,.84-12.1,2.76-16.1,1.92-4.45,4.97-8.7,9.57-13.34,7.8-7.4,17.21-12.16,26.31-16.76l2.9-1.48c8.59-4.39,17.47-8.94,23.77-15.75,1.44-1.33,2.47-2.83,3.46-4.29,.37-.54,.73-1.07,1.24-1.79,1.35-2.45,2.29-4.67,2.87-6.75,1.17-3.97,1.76-8.3,1.84-13.63,.06-7.11-.72-13.86-1.51-20-1.1,.62-2.27,1.12-3.51,1.54,.72,5.87,1.35,11.94,1.28,18.41-.09,4.97-.64,8.97-1.74,12.63-.51,1.83-1.33,3.72-2.44,5.75-.41,.54-.79,1.1-1.19,1.67-.94,1.36-1.82,2.65-3.04,3.76-5.94,6.37-14.22,10.56-22.98,15l-2.85,1.44c-9.32,4.67-18.95,9.5-27.25,17.31-5.04,5.04-8.39,9.68-10.5,14.55-2.19,4.5-4.52,11.39-3.14,18.63,1.11,5.95,5.14,11.6,11.34,15.89,5.72,4.04,12.29,6.68,17.4,8.53,11.66,4.1,23.57,6.73,37.93,9.73,3.2,.66,6.42,1.31,9.64,1.97,9.69,1.96,19.71,3.99,29.59,6.39,12.02,3,25.88,6.75,38.17,13.43,6.7,3.68,11.69,7.75,15.28,12.44,2,2.61,3.55,5.53,4.48,8.37,.47,1.65,.72,2.93,.55,4.34-.06,1.16-.5,2.38-1.31,3.67-1.44,2.11-3.78,3.99-7.16,5.74-2.56,1.32-5.54,2.51-9.37,3.73-5.7,1.75-11.95,3.21-20.26,4.73-9.01,1.66-18.25,3.04-27.19,4.37-18.46,2.75-37.54,5.6-55.69,11.03-7.65,2.34-14.08,5.03-19.66,8.22-3.46,2.07-6.33,4.18-8.77,6.48-2.85,2.76-5.05,5.82-6.52,9.08-2.89,6.14-3.08,13.88-.52,21.79,1.81,5.81,4.71,11.51,9.43,18.49,7.32,10.46,15.87,20.14,26.19,29.65,8.8,7.35,19.9,12.36,34.92,15.79,13.12,2.91,25.87,3.77,35.51,4.21,11.64,.49,22.8,.42,33.12,.27,3.73-.06,7.4-.12,11.01-.19,16.67-.31,32.41-.6,46.35,.35,9.04,.6,16.6,1.71,23.12,3.39,7.34,1.96,13.07,4.64,17.06,7.98,4.84,3.92,7.02,8.58,8,11.81,1.17,3.69,1.4,7.09,1.42,9.84,2.19-.97,4.44-1.82,6.73-2.48-.16-2.77-.58-5.94-1.67-9.37Z"/><path class="cls-11" d="M802.65,222.82c-3.64-2.56-7.83-5.19-13.71-7.13-2.83-1.03-6.3-1.73-10.98-2.23-4.05-.29-8.39-.13-12.91,.49-7.96,1.14-16.83,3.82-28.74,8.68-3.09,1.24-6.23,2.58-9.43,3.95-7.18,3.07-14.61,6.24-22.55,8.78-6.73,2.11-12.38,3.23-17.72,3.52-3.79,.09-6.71-.1-9.19-.57-1.16-.21-2.34-.37-3.52-.54-2.03-.29-4.12-.58-6.16-1.11l-.88-.19c-2.87-.63-5.83-1.28-8.74-2.31-2.48-.66-4.82-1.68-7.29-2.76l-1.8-.77c-6.49-3.3-11.38-7.52-14.54-12.56-3.09-4.77-4.92-10.98-5.61-18.97-.54-6.24-.41-12.73-.28-19.01l.04-2.13c.37-13.42,.31-28.93-5.06-43.05-1.09-3.16-2.61-6.09-4.08-8.93l-1.66-2.77c-1.55-2.41-3.16-4.9-5.04-7-1.65-2.23-3.59-4.14-5.46-5.98-.6-.59-1.19-1.17-1.87-1.85-2.67-2.36-5.37-4.56-8.1-6.61-.98-.64-1.95-1.31-2.91-1.97-1.78-1.23-3.63-2.51-5.6-3.6-1.02-.55-2.02-1.13-3.02-1.7-1.84-1.06-3.74-2.15-5.7-3.07l-8.81-4.13-2.55-.98-6.51-2.14c-12.4-3.3-24.68-3.29-35.04-2.82-3.46,.13-6.82,.37-10.09,.6-6.77,.48-13.15,.92-18.9,.26-1.48-.15-2.87-.59-4.17-1.17-1.52,.58-3.07,1.06-4.66,1.41,.52,.52,1.08,.99,1.71,1.33,1.96,1.14,4.28,1.88,6.69,2.15,6.09,.74,12.65,.33,19.58-.1,3.23-.2,6.56-.42,9.99-.52,10.05-.38,21.93-.32,33.72,2.92l3.58,1.12,4.95,1.88,8.63,4.13c1.81,.87,3.54,1.88,5.36,2.95,1.01,.59,2.03,1.19,3.05,1.75,1.77,.99,3.43,2.16,5.19,3.4,.98,.69,1.96,1.38,2.86,1.97,2.52,1.93,5.1,4.07,7.56,6.27,.59,.61,1.2,1.22,1.8,1.82,1.81,1.81,3.52,3.52,5.06,5.62,1.72,1.96,3.12,4.16,4.6,6.49l1.04,1.61,.52,1.02c1.35,2.65,2.74,5.39,3.71,8.27,4.97,13.39,4.91,28.32,4.45,41.27l-.06,2.3c-.17,6.34-.36,12.9,.16,19.42,.7,8.88,2.75,15.9,6.27,21.44,3.64,5.92,9.23,10.86,16.73,14.72l1.81,.8c2.61,1.16,5.3,2.36,8,3.1,3.08,1.12,6.22,1.83,9.26,2.53l.79,.18c2.22,.6,4.44,.93,6.59,1.24,1.15,.17,2.3,.34,3.44,.55,3.06,.58,5.93,.73,9.21,.73,.38,0,.77,0,1.16,0,5.93-.27,12.06-1.43,19.31-3.64,8.31-2.59,15.87-5.76,23.19-8.82,3.18-1.34,6.29-2.64,9.35-3.84,11.3-4.52,19.96-7.08,27.27-8.06,4.03-.53,7.9-.65,11.42-.37,4.15,.48,7.03,1.09,9.4,1.98,5.75,1.94,9.74,4.78,11.78,6.23l5.12,4.21,4.6-5.13-5.62-4.55Z"/></g></g></g></g></svg>